<svg xmlns="http://www.w3.org/2000/svg" xmlns:xlink="http://www.w3.org/1999/xlink" version="1.1" x="0px" y="0px" viewBox="0 0 100 125" enable-background="new 0 0 100 100" xml:space="preserve"><path d="M23.491,40.288h12.708v-3.616H23.491V40.288z M19.699,49.434h16.5v-3.616h-16.5V49.434z M23.491,58.581h12.708v-3.615  H23.491V58.581z M40.16,28.32v38.611h4.919c0.795,2.881,3.432,5.006,6.562,5.006s5.768-2.125,6.563-5.006h5.863  c0.796,2.881,3.434,5.006,6.563,5.006s5.767-2.125,6.562-5.006h4.917V28.32H40.16z M58.281,31.937h5.709v9.704l-2.854-1.252  l-2.854,1.252V31.937z M51.641,68.32c-1.763,0-3.197-1.434-3.197-3.197c0-1.762,1.434-3.195,3.197-3.195  c1.764,0,3.197,1.434,3.197,3.195C54.838,66.887,53.404,68.32,51.641,68.32z M70.631,68.32c-1.764,0-3.197-1.434-3.197-3.197  c0-1.762,1.434-3.195,3.197-3.195c1.763,0,3.196,1.434,3.196,3.195C73.827,66.887,72.394,68.32,70.631,68.32z M78.493,63.314h-1.3  c-0.796-2.88-3.433-5.004-6.562-5.004s-5.768,2.124-6.562,5.004h-5.865c-0.795-2.88-3.433-5.004-6.562-5.004  s-5.766,2.124-6.562,5.004h-1.303V31.937h10.89v15.238l6.47-2.838l6.47,2.838V31.937h10.888V63.314z M50.36,63.85  c-0.34,0.33-0.53,0.8-0.53,1.271c0,0.479,0.19,0.939,0.53,1.279c0.34,0.341,0.8,0.53,1.28,0.53c0.48,0,0.94-0.189,1.28-0.53  c0.34-0.34,0.53-0.8,0.53-1.279c0-0.471-0.19-0.94-0.53-1.271C52.25,63.17,51.04,63.17,50.36,63.85z M69.35,63.84  c-0.33,0.34-0.53,0.8-0.53,1.28c0,0.479,0.19,0.939,0.53,1.279c0.34,0.341,0.8,0.53,1.28,0.53c0.479,0,0.93-0.189,1.28-0.53  c0.34-0.34,0.529-0.8,0.529-1.279c0-0.471-0.189-0.94-0.529-1.271C71.24,63.17,70.03,63.17,69.35,63.84z"/><text x="0" y="115" fill="#000000" font-size="5px" font-weight="bold" font-family="'Helvetica Neue', Helvetica, Arial-Unicode, Arial, Sans-serif">Created by Sergey Demushkin</text><text x="0" y="120" fill="#000000" font-size="5px" font-weight="bold" font-family="'Helvetica Neue', Helvetica, Arial-Unicode, Arial, Sans-serif">from the Noun Project</text></svg>